<svg width="16" height="16" viewBox="0 0 16 16" fill="none" xmlns="http://www.w3.org/2000/svg">
<g clip-path="url(#clip0_46_25502)">
<path fill-rule="evenodd" clip-rule="evenodd" d="M9.24106 3.2934C9.2774 3.31441 9.30553 3.34708 9.32084 3.38608C9.33615 3.42507 9.33774 3.4681 9.32535 3.50811L8.65653 5.67448H9.89056C9.92683 5.67446 9.9623 5.68503 9.99261 5.70489C10.0229 5.72474 10.0467 5.75301 10.0611 5.7862C10.0755 5.81939 10.0798 5.85605 10.0735 5.89165C10.0672 5.92725 10.0506 5.96024 10.0257 5.98655L7.05486 9.13318C7.02611 9.16365 6.98786 9.18352 6.94634 9.18954C6.90482 9.19557 6.86247 9.18739 6.8262 9.16635C6.78994 9.14531 6.76189 9.11265 6.74663 9.07368C6.73137 9.03472 6.7298 8.99175 6.74217 8.95178L7.41099 6.78505H6.17696C6.1407 6.78507 6.10522 6.77449 6.07492 6.75464C6.04461 6.73479 6.0208 6.70652 6.00642 6.67333C5.99205 6.64014 5.98774 6.60348 5.99402 6.56788C6.00031 6.53227 6.01691 6.49928 6.04179 6.47298L9.01267 3.32635C9.04138 3.29592 9.07957 3.27607 9.12104 3.27002C9.1625 3.26397 9.2048 3.27208 9.24106 3.29303V3.2934Z" fill="#F2C94C"/>
<path d="M6.37389 11.2932L5.40896 14.5656C5.32913 14.8363 5.66317 15.0348 5.86275 14.8352L9.13515 11.5628C9.30671 11.3912 9.1852 11.0979 8.94258 11.0979H6.63511C6.51437 11.0979 6.40804 11.1774 6.37389 11.2932Z" fill="black" stroke="black" stroke-width="0.0680851"/>
<rect x="1.05523" y="1.05535" width="13.8894" height="10.417" rx="5.20851" stroke="black" stroke-width="1.42979"/>
</g>
<defs>
<clipPath id="clip0_46_25502">
<rect width="16" height="16" fill="white"/>
</clipPath>
</defs>
</svg>
